<?xml version="1.0" encoding="UTF-8"?>
<svg xmlns="http://www.w3.org/2000/svg" xmlns:xlink="http://www.w3.org/1999/xlink" width="24px" height="24px" viewBox="0 0 24 24" version="1.1">
<defs>
<linearGradient id="linear0" gradientUnits="userSpaceOnUse" x1="0.558" y1="46.8457" x2="29.9473" y2="8.0256" gradientTransform="matrix(0.342857,0,0,0.342857,0,0)">
<stop offset="0.016129" style="stop-color:rgb(46.27451%,35.294118%,97.254902%);stop-opacity:1;"/>
<stop offset="0.3821" style="stop-color:rgb(70.196078%,27.058824%,94.509804%);stop-opacity:1;"/>
<stop offset="0.7581" style="stop-color:rgb(98.039216%,19.607843%,57.647059%);stop-opacity:1;"/>
<stop offset="0.9409" style="stop-color:rgb(100%,19.215686%,54.901961%);stop-opacity:1;"/>
</linearGradient>
<linearGradient id="linear1" gradientUnits="userSpaceOnUse" x1="2.7297" y1="48.3788" x2="32.0719" y2="9.6209" gradientTransform="matrix(0.342857,0,0,0.342857,0,0)">
<stop offset="0.016129" style="stop-color:rgb(46.27451%,35.294118%,97.254902%);stop-opacity:1;"/>
<stop offset="0.3821" style="stop-color:rgb(70.196078%,27.058824%,94.509804%);stop-opacity:1;"/>
<stop offset="0.7581" style="stop-color:rgb(98.039216%,19.607843%,57.647059%);stop-opacity:1;"/>
<stop offset="0.9409" style="stop-color:rgb(100%,19.215686%,54.901961%);stop-opacity:1;"/>
</linearGradient>
<linearGradient id="linear2" gradientUnits="userSpaceOnUse" x1="50.8568" y1="46.405" x2="34.2739" y2="7.0481" gradientTransform="matrix(0.342857,0,0,0.342857,0,0)">
<stop offset="0.1828" style="stop-color:rgb(46.27451%,35.294118%,97.254902%);stop-opacity:1;"/>
<stop offset="0.2382" style="stop-color:rgb(52.54902%,33.333333%,96.470588%);stop-opacity:1;"/>
<stop offset="0.3449" style="stop-color:rgb(62.352941%,29.803922%,95.294118%);stop-opacity:1;"/>
<stop offset="0.4425" style="stop-color:rgb(68.235294%,27.843137%,94.901961%);stop-opacity:1;"/>
<stop offset="0.5219" style="stop-color:rgb(70.196078%,27.058824%,94.509804%);stop-opacity:1;"/>
</linearGradient>
<linearGradient id="linear3" gradientUnits="userSpaceOnUse" x1="63.2656" y1="57.3388" x2="24.6977" y2="27.5158" gradientTransform="matrix(0.342857,0,0,0.342857,0,0)">
<stop offset="0.016129" style="stop-color:rgb(46.27451%,35.294118%,97.254902%);stop-opacity:1;"/>
<stop offset="0.3821" style="stop-color:rgb(70.196078%,27.058824%,94.509804%);stop-opacity:1;"/>
</linearGradient>
</defs>
<g id="surface1">
<path style=" stroke:none;fill-rule:nonzero;fill:url(#linear0);" d="M 13.578125 5.210938 L 12.445312 1.78125 L 4.078125 0 L 0 4.628906 L 12.753906 11.144531 Z M 13.578125 5.210938 "/>
<path style=" stroke:none;fill-rule:nonzero;fill:url(#linear1);" d="M 9.601562 14.195312 L 9.359375 7.0625 L 0 4.628906 L 2.296875 18.378906 L 9.601562 18.308594 Z M 9.601562 14.195312 "/>
<path style=" stroke:none;fill-rule:nonzero;fill:url(#linear2);" d="M 7.578125 14.058594 L 8.023438 8.398438 L 14.8125 1.441406 L 20.878906 2.539062 L 24 10.320312 L 20.742188 13.542969 L 15.429688 12.6875 L 12.136719 16.148438 Z M 7.578125 14.058594 "/>
<path style=" stroke:none;fill-rule:nonzero;fill:url(#linear3);" d="M 14.8125 1.441406 L 5.074219 10.078125 L 6.960938 21.1875 L 15.050781 24 L 24 18.652344 Z M 14.8125 1.441406 "/>
<path style=" stroke:none;fill-rule:nonzero;fill:rgb(0%,0%,0%);fill-opacity:1;" d="M 4.59375 4.59375 L 19.40625 4.59375 L 19.40625 19.40625 L 4.59375 19.40625 Z M 4.59375 4.59375 "/>
<path style=" stroke:none;fill-rule:nonzero;fill:rgb(100%,100%,100%);fill-opacity:1;" d="M 6 16.628906 L 11.554688 16.628906 L 11.554688 17.554688 L 6 17.554688 Z M 6 16.628906 "/>
<path style=" stroke:none;fill-rule:nonzero;fill:rgb(100%,100%,100%);fill-opacity:1;" d="M 5.929688 6.515625 L 8.433594 6.515625 C 9.910156 6.515625 10.800781 7.371094 10.800781 8.640625 L 10.800781 8.675781 C 10.800781 10.113281 9.703125 10.835938 8.296875 10.835938 L 7.269531 10.835938 L 7.269531 12.6875 L 5.929688 12.6875 Z M 8.367188 9.601562 C 9.050781 9.601562 9.429688 9.1875 9.429688 8.675781 L 9.429688 8.640625 C 9.429688 8.023438 9.015625 7.714844 8.332031 7.714844 L 7.304688 7.714844 L 7.304688 9.601562 Z M 8.367188 9.601562 "/>
<path style=" stroke:none;fill-rule:nonzero;fill:rgb(100%,100%,100%);fill-opacity:1;" d="M 11.144531 11.792969 L 11.929688 10.835938 C 12.480469 11.28125 13.0625 11.589844 13.78125 11.589844 C 14.332031 11.589844 14.675781 11.382812 14.675781 11.003906 L 14.675781 10.972656 C 14.675781 10.628906 14.46875 10.457031 13.441406 10.183594 C 12.207031 9.875 11.382812 9.53125 11.382812 8.296875 L 11.382812 8.261719 C 11.382812 7.132812 12.273438 6.410156 13.542969 6.410156 C 14.433594 6.410156 15.222656 6.6875 15.839844 7.199219 L 15.121094 8.230469 C 14.570312 7.851562 14.023438 7.613281 13.507812 7.613281 C 12.996094 7.613281 12.71875 7.851562 12.71875 8.160156 L 12.71875 8.195312 C 12.71875 8.605469 12.996094 8.742188 14.058594 9.015625 C 15.292969 9.359375 16.011719 9.804688 16.011719 10.867188 L 16.011719 10.902344 C 16.011719 12.136719 15.085938 12.824219 13.75 12.824219 C 12.824219 12.789062 11.898438 12.445312 11.144531 11.792969 "/>
</g>
</svg>
